<svg width="375" height="812" viewBox="0 0 375 812" fill="none" xmlns="http://www.w3.org/2000/svg">
<path d="M320.474 434C220.474 770 746.474 978.43 292.474 896C-423.526 766 -21.5263 553.761 -21.5263 382C-21.5263 210.239 227.713 75 399.474 75C571.234 75 369.469 269.376 320.474 434Z" fill="url(#paint0_linear_2_24)"/>
<path d="M387.241 654.5C153.411 720.837 207.411 239 -128.589 377C-631.487 583.547 -721.467 -156.209 -537.115 -329.404C-352.763 -502.598 203.426 -210.055 387.587 -14.0307C571.748 181.994 801.411 537 387.241 654.5Z" fill="#F9C70C"/>
<path d="M392.652 644.5C158.822 710.837 212.822 229 -123.178 367C-626.076 573.547 -716.056 -166.209 -531.704 -339.404C-347.352 -512.598 208.837 -220.055 392.997 -24.0307C577.158 171.994 806.822 527 392.652 644.5Z" fill="#F9C70C"/>
<path d="M392.379 643.538C363.306 651.786 338.772 651.498 317.425 645.005C296.07 638.51 277.824 625.781 261.37 609.02C235.389 582.554 213.997 546.181 191.937 508.672C186.008 498.592 180.032 488.43 173.905 478.357C145.038 430.894 112.863 385.458 66.7626 360.589C20.5875 335.679 -39.3644 331.495 -123.558 366.075C-249.065 417.623 -348.652 410.076 -424.604 367.246C-500.595 324.394 -553.106 246.121 -584.214 155.876C-615.32 65.6383 -624.988 -36.4654 -615.371 -126.81C-605.75 -217.194 -576.851 -295.616 -531.019 -338.675C-485.228 -381.695 -416.241 -395.886 -335.419 -389.762C-254.618 -383.639 -162.164 -357.222 -69.6615 -319.249C115.357 -243.298 300.312 -121.227 392.269 -23.346C484.328 74.6432 587.62 212.235 616.223 339.9C630.516 403.697 626.138 464.92 592.489 517.499C558.832 570.089 495.783 614.202 392.379 643.538Z" stroke="white" stroke-opacity="0.6" stroke-width="2"/>
<path d="M704.137 573.332C704.137 745.092 92.9998 980 226 518C315.818 206 -26 174 33.9999 -86C86.2622 -312.47 229.376 -57.6684 401.137 -57.6684C572.897 -57.6684 704.137 401.571 704.137 573.332Z" fill="url(#paint1_linear_2_24)"/>
<path d="M713.251 573.131C713.251 744.891 102.114 979.799 235.114 517.799C324.933 205.799 -16.8857 173.799 43.1142 -86.201C95.3765 -312.671 238.49 -57.8694 410.251 -57.8694C582.012 -57.8694 713.251 401.37 713.251 573.131Z" fill="url(#paint2_linear_2_24)"/>
<path d="M712.251 573.131C712.251 594.307 702.828 616.556 686.451 638.417C670.079 660.27 646.812 681.661 619.263 701.098C564.161 739.975 492.065 770.941 424.145 782.138C356.18 793.343 292.682 784.716 254.436 744.813C216.219 704.94 202.859 633.458 236.075 518.076C258.583 439.891 254.065 379.174 235.509 328.021C216.966 276.902 184.429 235.41 151.062 195.656C147.172 191.022 143.272 186.411 139.38 181.812C76.4506 107.43 15.9571 35.9274 44.0886 -85.9761C57.1449 -142.553 75.7839 -168.592 98.6951 -176.369C110.167 -180.263 122.851 -179.635 136.69 -175.796C150.534 -171.956 165.465 -164.921 181.386 -156.087C195.296 -148.369 209.919 -139.301 225.199 -129.825C227.405 -128.457 229.626 -127.08 231.86 -125.697C249.552 -114.748 268.08 -103.452 287.305 -93.26C325.748 -72.8818 367.07 -56.8694 410.251 -56.8694C452.728 -56.8694 492.879 -28.4658 529.274 17.1938C565.646 62.8236 598.11 125.496 625.232 193.59C679.482 329.793 712.251 487.415 712.251 573.131Z" stroke="white" stroke-opacity="0.6" stroke-width="2"/>
<path d="M797.942 207C797.942 378.76 1077.66 842.64 588.941 826C-204.059 799 586.308 387.739 222 58C-52 -190 518.239 -370 690 -370C861.761 -370 797.942 35.2393 797.942 207Z" fill="url(#paint3_linear_2_24)"/>
<path d="M808.22 207C808.22 378.76 1087.94 842.64 599.219 826C-193.781 799 596.585 387.739 232.277 58C-41.7226 -190 528.517 -370 700.277 -370C872.038 -370 808.22 35.2393 808.22 207Z" fill="url(#paint4_linear_2_24)"/>
<path d="M807.22 207C807.22 228.586 811.612 254.71 818.31 283.818C824.389 310.236 832.382 339.169 840.751 369.463C841.606 372.557 842.465 375.665 843.326 378.786C861.918 446.184 881.58 519.654 885.992 587.215C890.404 654.781 879.55 716.224 837.336 759.759C795.12 803.296 721.311 829.156 599.253 825C500.164 821.627 425.862 812.252 370.971 797.805C316.071 783.356 280.681 763.858 259.309 740.307C237.966 716.789 230.509 689.127 231.687 658.115C232.867 627.065 242.704 592.699 255.93 555.865C262.336 538.024 269.538 519.606 276.922 500.72C299.986 441.736 324.833 378.194 332.781 313.433C343.292 227.8 324.293 139.935 232.948 57.2586C198.779 26.3318 177.838 -3.47479 167.615 -31.9319C157.398 -60.3705 157.867 -87.5126 166.601 -113.178C184.094 -164.575 234.786 -210.168 299.622 -248.137C364.418 -286.082 443.154 -316.303 516.432 -337.038C589.722 -357.776 657.467 -369 700.277 -369C721.534 -369 739.106 -362.737 753.616 -351.462C768.142 -340.176 779.651 -323.828 788.692 -303.59C806.783 -263.092 814.903 -207.225 817.66 -145.865C820.415 -84.5279 817.808 -17.8123 814.509 44.3291C813.747 58.6793 812.948 72.7874 812.17 86.5294C809.58 132.27 807.22 173.953 807.22 207Z" stroke="white" stroke-opacity="0.6" stroke-width="2"/>
<path d="M542 633.32C822.153 544.766 421.815 1030.32 128 1030.32C-165.816 1030.32 -17.9999 1184.14 -17.9999 890.32C-17.9999 596.505 -582 707.32 -104 505.32C210.826 372.277 194 743.32 542 633.32Z" fill="url(#paint5_linear_2_24)"/>
<path d="M535.231 643.522C815.384 554.968 415.047 1040.52 121.231 1040.52C-172.584 1040.52 -24.7685 1194.34 -24.7685 900.522C-24.7685 606.707 -588.769 717.523 -110.769 515.522C204.057 382.479 187.231 753.522 535.231 643.522Z" fill="url(#paint6_linear_2_24)"/>
<path d="M535.533 644.476C570.518 633.417 594.649 631.406 609.628 636.11C617.078 638.45 622.229 642.438 625.373 647.783C628.527 653.146 629.725 659.981 629.055 668.113C627.711 684.407 618.892 705.608 603.974 729.694C589.073 753.753 568.152 780.59 542.735 808.137C491.899 863.23 423.141 921.094 348.759 965.178C274.361 1009.27 194.432 1039.52 121.231 1039.52C47.6945 1039.52 1.72308 1049.15 -25.8716 1059.02C-39.0609 1063.75 -48.0574 1068.53 -53.86 1072.35C-50.5181 1066.83 -46.416 1058.54 -42.3284 1046.68C-33.0164 1019.65 -23.7685 974.056 -23.7685 900.522C-23.7685 826.679 -59.2337 778.243 -104.824 744.019C-143.475 715.006 -189.467 696.164 -227.29 680.668C-234.025 677.909 -240.501 675.256 -246.63 672.67C-266.97 664.091 -283.391 656.296 -292.956 647.887C-297.724 643.694 -300.69 639.432 -301.654 634.937C-302.611 630.472 -301.627 625.607 -298.143 620.115C-291.121 609.048 -274.154 595.762 -243.825 578.884C-213.548 562.035 -170.119 541.689 -110.379 516.444C-31.8358 483.252 25.9006 481.545 73.7628 495.822C121.505 510.063 159.542 540.232 198.74 571.324L199.17 571.665C238.477 602.842 278.968 634.868 331.441 652.169C383.952 669.483 448.368 672.028 535.533 644.476Z" stroke="white" stroke-opacity="0.6" stroke-width="2"/>
<path d="M-12.5 465.5C161 434 238.5 640.82 400.5 640.82" stroke="white" stroke-opacity="0.6" stroke-width="2"/>
<defs>
<linearGradient id="paint0_linear_2_24" x1="173" y1="526" x2="173.002" y2="914.015" gradientUnits="userSpaceOnUse">
<stop stop-color="#1CD8D2"/>
<stop offset="1" stop-color="#93EDC7"/>
</linearGradient>
<linearGradient id="paint1_linear_2_24" x1="146" y1="-286" x2="308" y2="702" gradientUnits="userSpaceOnUse">
<stop stop-color="#F12711"/>
<stop offset="1" stop-color="#F5AF19"/>
</linearGradient>
<linearGradient id="paint2_linear_2_24" x1="155.114" y1="-286.201" x2="317.114" y2="701.799" gradientUnits="userSpaceOnUse">
<stop stop-color="#F12711"/>
<stop offset="1" stop-color="#F5AF19"/>
</linearGradient>
<linearGradient id="paint3_linear_2_24" x1="592.814" y1="-356" x2="592.814" y2="858.436" gradientUnits="userSpaceOnUse">
<stop stop-color="#4A00E0"/>
<stop offset="1" stop-color="#8E2DE2"/>
</linearGradient>
<linearGradient id="paint4_linear_2_24" x1="603.091" y1="-356" x2="603.091" y2="858.436" gradientUnits="userSpaceOnUse">
<stop stop-color="#4A00E0"/>
<stop offset="1" stop-color="#8E2DE2"/>
</linearGradient>
<linearGradient id="paint5_linear_2_24" x1="188.001" y1="161.321" x2="188.001" y2="976.321" gradientUnits="userSpaceOnUse">
<stop stop-color="#29A4EC"/>
<stop offset="1" stop-color="#363ECF"/>
</linearGradient>
<linearGradient id="paint6_linear_2_24" x1="-121" y1="224.32" x2="277" y2="898.32" gradientUnits="userSpaceOnUse">
<stop stop-color="#29A4EC"/>
<stop offset="1" stop-color="#363ECF"/>
</linearGradient>
</defs>
</svg>
